<svg width="32" height="32" viewBox="0 0 32 32" fill="none" xmlns="http://www.w3.org/2000/svg">
<path d="M24.6668 28C24.4668 28 24.2002 27.9333 24.0002 27.8C23.3335 27.4667 23.1335 26.6 23.4668 26C23.4668 25.9333 25.9335 21.4667 25.9335 16C25.9335 10.5333 23.5335 6 23.5335 6C23.2002 5.33334 23.4002 4.53334 24.0668 4.2C24.7335 3.86667 25.5335 4.06667 25.8668 4.73334C26.0002 4.93334 28.7335 9.8 28.7335 16.0667C28.7335 22.3333 26.0002 27.2 25.8668 27.4C25.6002 27.7333 25.1335 28 24.6668 28ZM21.8668 23.8667C21.9335 23.7333 23.3335 20.5333 23.3335 16C23.3335 11.4667 21.9335 8.26667 21.8668 8.13334C21.6002 7.46667 20.8002 7.13334 20.1335 7.46667C19.4668 7.73334 19.1335 8.53334 19.4668 9.2C19.4668 9.2 20.6668 12.0667 20.6668 16C20.6668 19.9333 19.4668 22.8 19.4668 22.8C19.2002 23.4667 19.4668 24.2667 20.1335 24.5333C20.3335 24.6 20.4668 24.6667 20.6668 24.6667C21.2002 24.6667 21.6668 24.4 21.8668 23.8667ZM15.5335 22C15.9335 21.9333 16.2668 21.6667 16.4668 21.3333C16.5335 21.2 18.0002 18.7333 18.0002 16C18.0002 13.2667 16.5335 10.7333 16.4668 10.6667C16.0668 10 15.2668 9.8 14.6668 10.2C14.0002 10.6 13.8002 11.4 14.2002 12C14.2002 12 15.3335 14 15.3335 16C15.3335 16.8667 15.1335 17.8 14.8668 18.4667L6.20016 11C5.86683 10.7333 5.40016 10.6 5.00016 10.7333C4.60016 10.8667 4.20016 11.1333 4.06683 11.6C4.06683 11.6667 3.3335 13.6667 3.3335 16C3.3335 18.3333 4.06683 20.3333 4.06683 20.4667C4.3335 21.1333 5.06683 21.5333 5.80016 21.2667C6.46683 21 6.86683 20.2667 6.60016 19.5333C6.60016 19.5333 6.00016 17.8 6.00016 16C6.00016 15.4667 6.06683 14.9333 6.1335 14.4667L14.4668 21.6667C14.7335 21.8667 15.0002 22 15.3335 22H15.5335Z" fill="white"/>
</svg>
