<svg width="42" height="42" viewBox="0 0 42 42" fill="none" xmlns="http://www.w3.org/2000/svg">
<path d="M17.5 7H35C36.9425 7 38.5 8.5575 38.5 10.5V14H32.5325L28 18.5325V25.5325L24.5 29.0325V35H17.5V29.0325L14 25.5325V16.4675L17.5 12.9675V7ZM31.5 19.9675V24.5H38.5V17.5H33.9675L31.5 19.9675ZM11.5325 14L14 11.5325V7H7C5.0575 7 3.5 8.5575 3.5 10.5V14H11.5325ZM10.5 24.5V17.5H3.5V24.5H10.5ZM14 30.4675L11.5325 28H3.5V31.5C3.5 33.4425 5.0575 35 7 35H14V30.4675ZM30.4675 28L28 30.4675V35H35C36.9425 35 38.5 33.4425 38.5 31.5V28H30.4675Z" fill="#CCCCCC"/>
</svg>
