<svg width="200" height="200" viewBox="0 0 200 200" fill="none" xmlns="http://www.w3.org/2000/svg">
<g clip-path="url(#clip0_71_131)">
<path d="M185.183 131.4L183.308 122.025H162.358L159.025 131.333L142.233 131.367C150.227 112.143 158.238 92.9262 166.267 73.7167C167.633 70.4583 170.058 68.8 173.633 68.8167C176.367 68.8417 180.825 68.8417 187.017 68.825L200 131.375L185.183 131.4ZM167.075 109.183H180.575L175.533 85.6833L167.075 109.183ZM58.8333 68.8083L75.7167 68.825L49.6167 131.408L32.525 131.392C28.2271 114.861 23.9826 98.3165 19.7917 81.7583C18.9583 78.4583 17.3083 76.15 14.1333 75.0583C9.44354 73.4869 4.73197 71.9812 0 70.5417L0 68.8333H26.975C31.6417 68.8333 34.3667 71.0917 35.2417 75.725C36.125 80.3667 38.3417 92.1833 41.9083 111.175L58.8333 68.8083ZM98.9167 68.825L85.5667 131.392L69.5 131.375L82.8333 68.8083L98.9167 68.825ZM131.5 67.6667C136.308 67.6667 142.367 69.1667 145.85 70.5417L143.033 83.5167C139.883 82.25 134.7 80.5417 130.342 80.6C124.008 80.7083 120.092 83.3667 120.092 85.9167C120.092 90.0667 126.892 92.1583 133.892 96.6917C141.883 101.858 142.933 106.5 142.833 111.542C142.725 122.008 133.892 132.333 115.258 132.333C106.758 132.208 103.692 131.492 96.7583 129.033L99.6917 115.492C106.75 118.45 109.742 119.392 115.775 119.392C121.3 119.392 126.042 117.158 126.083 113.267C126.117 110.5 124.417 109.125 118.217 105.708C112.017 102.283 103.317 97.5417 103.433 88.025C103.575 75.8417 115.117 67.6667 131.508 67.6667H131.5Z" fill="white"/>
</g>
<defs>
<clipPath id="clip0_71_131">
<rect width="200" height="200" fill="white"/>
</clipPath>
</defs>
</svg>
