<svg width="375" height="812" viewBox="0 0 375 812" fill="none" xmlns="http://www.w3.org/2000/svg">
<circle cx="199" cy="158" r="10" stroke="white" stroke-width="2"/>
<circle cx="135" cy="338" r="4" fill="#B4CFB0"/>
<circle cx="351" cy="228" r="6" fill="#E6F5C4"/>
<circle cx="200" cy="64" r="4" fill="#146356"/>
<circle cx="121" cy="374" r="4" fill="#B4CFB0"/>
<circle cx="277" cy="346" r="3" fill="#B4CFB0"/>
<circle cx="2" cy="2" r="2" transform="matrix(1 0 0 -1 177 358)" fill="#E6F5C4"/>
<circle cx="2" cy="2" r="2" transform="matrix(1 0 0 -1 277 388)" fill="#E6F5C4"/>
<path d="M32.7698 222.638L43.5544 202.872L55.2799 222.095L32.7698 222.638Z" fill="#BB5391"/>
<path d="M32.7698 224.638L43.5544 204.872L55.2799 224.095L32.7698 224.638Z" fill="#D26FAB"/>
<path d="M120 95L113.072 83L126.928 83L120 95Z" fill="#E6F5C4"/>
<path d="M287.77 214.638L298.554 194.872L310.28 214.095L287.77 214.638Z" fill="#B4CFB0"/>
<path d="M38.8858 391.502L48.4815 391.271L43.4831 383.077L38.8858 391.502Z" fill="#3AEE97"/>
<path d="M135.5 189L136.51 185.891H139.78L137.135 183.969L138.145 180.859L135.5 182.781L132.855 180.859L133.865 183.969L131.22 185.891H134.49L135.5 189Z" fill="#FC7B7B"/>
<path d="M20.5 322L21.5103 318.891H24.7798L22.1347 316.969L23.145 313.859L20.5 315.781L17.855 313.859L18.8653 316.969L16.2202 318.891H19.4897L20.5 322Z" fill="#E6F5C4"/>
<path d="M356.43 181.651L357.971 178.767L361.189 179.341L358.923 176.985L360.463 174.101L357.522 175.528L355.256 173.172L355.704 176.411L352.763 177.838L355.981 178.412L356.43 181.651Z" fill="#D26FAB"/>
</svg>
