<svg xmlns="http://www.w3.org/2000/svg"  viewBox="0 0 48 48" width="240px" height="240px"><path fill="#283593" d="M2 10H46V38H2z"/><path fill="#fff" d="M13,28l0.593,1.892l1.812-0.704l-1.072,1.656L16,31.859l-1.931,0.172L14.335,34L13,32.559L11.665,34l0.266-1.969L10,31.859l1.667-1.014l-1.072-1.656l1.812,0.704L13,28z M34.5,31l0.297,0.946l0.906-0.352l-0.536,0.828L36,32.929l-0.965,0.086L35.168,34L34.5,33.28L33.832,34l0.133-0.985L33,32.929l0.833-0.507l-0.536-0.828l0.906,0.352L34.5,31z M29.465,21.985l0.297,0.946l0.906-0.352l-0.536,0.828l0.833,0.507L30,24l0.133,0.985l-0.668-0.72l-0.668,0.72L28.931,24l-0.965-0.086l0.833-0.507l-0.536-0.828l0.906,0.352L29.465,21.985z M34.5,16l0.297,0.946l0.906-0.352l-0.536,0.828L36,17.929l-0.965,0.086L35.168,19L34.5,18.28L33.832,19l0.133-0.985L33,17.929l0.833-0.507l-0.536-0.828l0.906,0.352L34.5,16z M40.5,21l0.297,0.946l0.906-0.352l-0.536,0.828L42,22.929l-0.965,0.086L41.168,24L40.5,23.28L39.832,24l0.133-0.985L39,22.929l0.833-0.507l-0.536-0.828l0.906,0.352L40.5,21z M37,25l0.275,0.708L38,25.764l-0.556,0.493L37.618,27L37,26.597L36.382,27l0.174-0.743L36,25.764l0.725-0.056L37,25z M2,11.957l9.459,5.907l1.423-2.379L4.094,10H2V11.957z M24,10h-1.641l-8.785,5.484l1.422,2.379L24,12.24V10z M14.996,15.769l-1.422,2.375L22.951,24H24v-2.609L14.996,15.769z M2,21.676V24h1.505l9.377-5.855l-1.423-2.375L2,21.676z M24,15H2v4h22V15z M11,10v14h4V10H11z"/><path fill="#e53935" d="M8.898,19h1.744l-8.01,5H2v-0.695L8.898,19z M9.488,15L2,10.324v1.09L7.746,15H9.488z M17.558,19L24,23.021v-1.088L19.3,19H17.558z M23.232,10l-8.008,5h1.744L24,10.609V10H23.232z M13.999,10h-2v6H2v2h9.999v6h2v-6H24v-2H13.999V10z"/></svg>