<svg xmlns="http://www.w3.org/2000/svg"  viewBox="0 0 48 48" width="240px" height="240px"><path fill="#3F51B5" d="M2 10H46V38H2z"/><path fill="#FFF" d="M2 14.216L22.81 26.935 25.939 21.815 6.608 10 2 10z"/><path fill="#FFF" d="M46 10L42.391 10 23.061 21.814 26.189 26.935 46 14.826z"/><path fill="#FFF" d="M26.189 20.271L23.061 25.391 43.691 38 46 38 46 32.379z"/><path fill="#FFF" d="M2 32.991L2 38 5.31 38 25.939 25.392 22.811 20.271z"/><path fill="#FFF" d="M2 20H46V28H2z"/><path fill="#FFF" d="M20 10H28V38H20z"/><g><path fill="#E53935" d="M17.218 20L2 10.699 2 13.043 13.382 20zM44.309 10L27.947 20 31.782 20 46 11.311 46 10zM33.082 28L46 35.895 46 33.551 36.917 28zM15.918 28L2 36.506 2 38 3.392 38 19.753 28zM2 22H46V26H2z"/><path fill="#E53935" d="M22 10H26V38H22z"/></g></svg>