<svg xmlns="http://www.w3.org/2000/svg"  viewBox="0 0 48 48" width="240px" height="240px"><path fill="#ff9800" d="M2 9H46V19H2z"/><path fill="#f5f5f5" d="M2 19H46V29H2z"/><path fill="#388e3c" d="M2 29H46V39H2z"/><path fill="#008" d="M24,20.089c-2.16,0-3.911,1.751-3.911,3.911S21.84,27.911,24,27.911S27.911,26.16,27.911,24S26.16,20.089,24,20.089z M24,27.422c-1.89,0-3.422-1.532-3.422-3.422S22.11,20.578,24,20.578c1.89,0,3.422,1.532,3.422,3.422S25.89,27.422,24,27.422z"/><path fill="#008" d="M24 23.316A0.684 0.684 0 1 0 24 24.684A0.684 0.684 0 1 0 24 23.316Z"/><path fill="#008" d="M27.393 24.276A0.171 0.171 0 1 0 27.393 24.618A0.171 0.171 0 1 0 27.393 24.276Z" transform="rotate(-82.502 27.392 24.445)"/><path fill="#008" d="M24,27.422l0.117-2.053L24,24.391l-0.117,0.978L24,27.422z"/><path fill="#008" d="M27.162 25.139A0.171 0.171 0 1 0 27.162 25.480999999999998A0.171 0.171 0 1 0 27.162 25.139Z" transform="rotate(-67.5 27.162 25.31)"/><path fill="#008" d="M23.114,27.306l0.645-1.953l0.14-0.975l-0.366,0.914L23.114,27.306z"/><path fill="#008" d="M26.715 25.912A0.171 0.171 0 1 0 26.715 26.253999999999998A0.171 0.171 0 1 0 26.715 25.912Z" transform="rotate(-52.5 26.714 26.082)"/><path fill="#008" d="M22.289,26.964l1.128-1.72l0.387-0.905l-0.591,0.788L22.289,26.964z"/><path fill="#008" d="M26.083 26.544A0.171 0.171 0 1 0 26.083 26.886A0.171 0.171 0 1 0 26.083 26.544Z" transform="rotate(-37.5 26.081 26.713)"/><path fill="#008" d="M21.58,26.42l1.535-1.369l0.608-0.774l-0.774,0.608L21.58,26.42z"/><path fill="#008" d="M25.31 26.991A0.171 0.171 0 1 0 25.31 27.333A0.171 0.171 0 1 0 25.31 26.991Z" transform="rotate(-22.5 25.306 27.159)"/><path fill="#008" d="M21.036,25.711l1.837-0.925l0.788-0.591l-0.905,0.387L21.036,25.711z"/><path fill="#008" d="M24.447 27.222A0.171 0.171 0 1 0 24.447 27.564A0.171 0.171 0 1 0 24.447 27.222Z" transform="rotate(-7.498 24.444 27.39)"/><path fill="#008" d="M20.694,24.886l2.014-0.418l0.914-0.366l-0.975,0.14L20.694,24.886z"/><path fill="#008" d="M23.553 27.222A0.171 0.171 0 1 0 23.553 27.564A0.171 0.171 0 1 0 23.553 27.222Z" transform="rotate(-82.501 23.555 27.394)"/><path fill="#008" d="M20.578,24l2.053,0.117L23.609,24l-0.978-0.117L20.578,24z"/><path fill="#008" d="M22.69 26.991A0.171 0.171 0 1 0 22.69 27.333A0.171 0.171 0 1 0 22.69 26.991Z" transform="rotate(-67.5 22.691 27.161)"/><path fill="#008" d="M20.694,23.114l1.953,0.645l0.975,0.14l-0.914-0.366L20.694,23.114z"/><path fill="#008" d="M21.917 26.544A0.171 0.171 0 1 0 21.917 26.886A0.171 0.171 0 1 0 21.917 26.544Z" transform="rotate(-52.5 21.915 26.713)"/><path fill="#008" d="M21.036,22.289l1.72,1.128l0.905,0.387l-0.788-0.59L21.036,22.289z"/><path fill="#008" d="M21.285 25.912A0.171 0.171 0 1 0 21.285 26.253999999999998A0.171 0.171 0 1 0 21.285 25.912Z" transform="rotate(-37.5 21.284 26.082)"/><path fill="#008" d="M21.58,21.58l1.369,1.535l0.774,0.608l-0.608-0.774L21.58,21.58z"/><path fill="#008" d="M20.838 25.139A0.171 0.171 0 1 0 20.838 25.480999999999998A0.171 0.171 0 1 0 20.838 25.139Z" transform="rotate(-22.5 20.835 25.307)"/><path fill="#008" d="M22.289,21.036l0.925,1.837l0.591,0.788l-0.387-0.905L22.289,21.036z"/><path fill="#008" d="M20.607 24.276A0.171 0.171 0 1 0 20.607 24.618A0.171 0.171 0 1 0 20.607 24.276Z" transform="rotate(-7.499 20.605 24.445)"/><path fill="#008" d="M23.114,20.694l0.418,2.014l0.366,0.914l-0.14-0.975L23.114,20.694z"/><path fill="#008" d="M20.607 23.382A0.171 0.171 0 1 0 20.607 23.724A0.171 0.171 0 1 0 20.607 23.382Z" transform="rotate(-82.502 20.606 23.552)"/><path fill="#008" d="M24,20.578l-0.117,2.053L24,23.609l0.117-0.978L24,20.578z"/><path fill="#008" d="M20.838 22.519000000000002A0.171 0.171 0 1 0 20.838 22.861A0.171 0.171 0 1 0 20.838 22.519000000000002Z" transform="rotate(-67.505 20.838 22.69)"/><path fill="#008" d="M24.886,20.694l-0.645,1.953l-0.14,0.975l0.366-0.914L24.886,20.694z"/><path fill="#008" d="M21.285 21.746000000000002A0.171 0.171 0 1 0 21.285 22.088A0.171 0.171 0 1 0 21.285 21.746000000000002Z" transform="rotate(-52.504 21.283 21.916)"/><path fill="#008" d="M25.711,21.036l-1.128,1.72l-0.387,0.905l0.59-0.788L25.711,21.036z"/><path fill="#008" d="M21.917 21.114A0.171 0.171 0 1 0 21.917 21.456A0.171 0.171 0 1 0 21.917 21.114Z" transform="rotate(-37.5 21.915 21.283)"/><path fill="#008" d="M26.42,21.58l-1.535,1.369l-0.608,0.774l0.774-0.608L26.42,21.58z"/><path fill="#008" d="M22.69 20.667A0.171 0.171 0 1 0 22.69 21.009A0.171 0.171 0 1 0 22.69 20.667Z" transform="rotate(-22.5 22.693 20.84)"/><path fill="#008" d="M26.964,22.289l-1.837,0.925l-0.788,0.59l0.905-0.387L26.964,22.289z"/><path fill="#008" d="M23.553 20.436A0.171 0.171 0 1 0 23.553 20.778A0.171 0.171 0 1 0 23.553 20.436Z" transform="rotate(-7.505 23.55 20.604)"/><path fill="#008" d="M27.306,23.114l-2.014,0.418l-0.914,0.366l0.975-0.14L27.306,23.114z"/><path fill="#008" d="M24.447 20.436A0.171 0.171 0 1 0 24.447 20.778A0.171 0.171 0 1 0 24.447 20.436Z" transform="rotate(-82.495 24.448 20.608)"/><path fill="#008" d="M27.422,24l-2.053-0.117L24.391,24l0.978,0.117L27.422,24z"/><path fill="#008" d="M25.31 20.667A0.171 0.171 0 1 0 25.31 21.009A0.171 0.171 0 1 0 25.31 20.667Z" transform="rotate(-67.5 25.308 20.838)"/><path fill="#008" d="M27.306,24.886l-1.953-0.645l-0.975-0.14l0.914,0.366L27.306,24.886z"/><path fill="#008" d="M26.083 21.114A0.171 0.171 0 1 0 26.083 21.456A0.171 0.171 0 1 0 26.083 21.114Z" transform="rotate(-52.5 26.082 21.284)"/><path fill="#008" d="M26.964,25.711l-1.72-1.128l-0.905-0.387l0.788,0.591L26.964,25.711z"/><path fill="#008" d="M26.715 21.746000000000002A0.171 0.171 0 1 0 26.715 22.088A0.171 0.171 0 1 0 26.715 21.746000000000002Z" transform="rotate(-37.505 26.714 21.917)"/><path fill="#008" d="M26.42,26.42l-1.369-1.535l-0.774-0.608l0.608,0.774L26.42,26.42z"/><path fill="#008" d="M27.162 22.519000000000002A0.171 0.171 0 1 0 27.162 22.861A0.171 0.171 0 1 0 27.162 22.519000000000002Z" transform="rotate(-22.497 27.163 22.692)"/><path fill="#008" d="M25.711,26.964l-0.925-1.837l-0.59-0.788l0.387,0.905L25.711,26.964z"/><path fill="#008" d="M27.393 23.382A0.171 0.171 0 1 0 27.393 23.724A0.171 0.171 0 1 0 27.393 23.382Z" transform="rotate(-7.498 27.39 23.551)"/><path fill="#008" d="M24.886,27.306l-0.418-2.014l-0.366-0.914l0.14,0.975L24.886,27.306z"/></svg>