<svg width="227" height="213" viewBox="0 0 227 213" fill="none" xmlns="http://www.w3.org/2000/svg">
<rect x="10" width="207" height="207" rx="40" fill="white"/>
<rect x="35" y="26" width="50" height="50" rx="10" fill="#FFB72B"/>
<g filter="url(#filter0_d_157_1558)">
<path d="M10 61C10 55.4772 14.4772 51 20 51H207C212.523 51 217 55.4772 217 61V119C217 141.091 199.091 159 177 159H50C27.9086 159 10 141.091 10 119V61Z" fill="white"/>
</g>
<rect x="114" y="43" width="80" height="8" rx="2" fill="#6F7789"/>
<rect x="114" y="93" width="80" height="8" rx="2" fill="#6F7789"/>
<rect x="114" y="29" width="80" height="8" rx="2" fill="#6F7789"/>
<rect x="114" y="79" width="80" height="8" rx="2" fill="#6F7789"/>
<rect x="35" y="76" width="50" height="50" rx="10" fill="#0CB3FF"/>
<g filter="url(#filter1_d_157_1558)">
<path d="M10 109C10 103.477 14.4772 99 20 99H207C212.523 99 217 103.477 217 109V167C217 189.091 199.091 207 177 207H50C27.9086 207 10 189.091 10 167V109Z" fill="white"/>
</g>
<rect x="114" y="140" width="80" height="8" rx="2" fill="#6F7789"/>
<rect x="114" y="168" width="42" height="8" rx="2" fill="#6F7789"/>
<rect x="114" y="126" width="80" height="8" rx="2" fill="#6F7789"/>
<rect x="114" y="154" width="80" height="8" rx="2" fill="#6F7789"/>
<rect x="35" y="126" width="50" height="50" rx="10" fill="#CD6CE5"/>
<defs>
<filter id="filter0_d_157_1558" x="0" y="37" width="227" height="128" filterUnits="userSpaceOnUse" color-interpolation-filters="sRGB">
<feFlood flood-opacity="0" result="BackgroundImageFix"/>
<feColorMatrix in="SourceAlpha" type="matrix" values="0 0 0 0 0 0 0 0 0 0 0 0 0 0 0 0 0 0 127 0" result="hardAlpha"/>
<feOffset dy="-4"/>
<feGaussianBlur stdDeviation="5"/>
<feComposite in2="hardAlpha" operator="out"/>
<feColorMatrix type="matrix" values="0 0 0 0 0 0 0 0 0 0 0 0 0 0 0 0 0 0 0.04 0"/>
<feBlend mode="normal" in2="BackgroundImageFix" result="effect1_dropShadow_157_1558"/>
<feBlend mode="normal" in="SourceGraphic" in2="effect1_dropShadow_157_1558" result="shape"/>
</filter>
<filter id="filter1_d_157_1558" x="0" y="85" width="227" height="128" filterUnits="userSpaceOnUse" color-interpolation-filters="sRGB">
<feFlood flood-opacity="0" result="BackgroundImageFix"/>
<feColorMatrix in="SourceAlpha" type="matrix" values="0 0 0 0 0 0 0 0 0 0 0 0 0 0 0 0 0 0 127 0" result="hardAlpha"/>
<feOffset dy="-4"/>
<feGaussianBlur stdDeviation="5"/>
<feComposite in2="hardAlpha" operator="out"/>
<feColorMatrix type="matrix" values="0 0 0 0 0 0 0 0 0 0 0 0 0 0 0 0 0 0 0.1 0"/>
<feBlend mode="normal" in2="BackgroundImageFix" result="effect1_dropShadow_157_1558"/>
<feBlend mode="normal" in="SourceGraphic" in2="effect1_dropShadow_157_1558" result="shape"/>
</filter>
</defs>
</svg>
