<svg xmlns="http://www.w3.org/2000/svg"  viewBox="0 0 50 50" width="150px" height="150px"><path d="M 3 1 C 1.898438 1 1 1.898438 1 3 L 1 15 C 1 16.101563 1.898438 17 3 17 L 42 17 C 43.101563 17 44 16.101563 44 15 L 44 3 C 44 1.898438 43.101563 1 42 1 Z M 45 8 L 45 19.1875 L 22.78125 24.03125 C 22.320313 24.132813 22 24.53125 22 25 L 22 27 L 24 27 L 24 25.8125 L 46.21875 20.96875 C 46.679688 20.867188 47 20.46875 47 20 L 47 9 C 47 8.449219 46.554688 8 46 8 Z M 20 29 C 18.898438 29 18 29.898438 18 31 L 18 47 C 18 48.101563 18.898438 49 20 49 L 26 49 C 27.101563 49 28 48.101563 28 47 L 28 31 C 28 29.898438 27.101563 29 26 29 Z"/></svg>